<svg height="40" viewBox="0 0 319 59" fill="none" xmlns="http://www.w3.org/2000/svg">
<g clip-path="url(#clip0_80_12)">
<g clip-path="url(#clip1_80_12)">
<path d="M106.167 19.4031C107.541 19.4031 108.571 19.8497 109.259 20.7429C109.98 21.6018 110.341 22.5637 110.341 23.6287C110.341 24.6593 109.98 25.6212 109.259 26.5144C108.571 27.3733 107.541 27.8027 106.167 27.8027H94.366C92.3735 27.8027 90.7073 28.3523 89.3675 29.4517C88.0277 30.5167 87.0314 31.8736 86.3787 33.5226C85.726 35.1373 85.3996 36.8893 85.3996 38.7788C85.3996 40.6683 85.726 42.4375 86.3787 44.0865C87.0658 45.7012 88.062 47.0582 89.3675 48.1575C90.7073 49.2225 92.3735 49.755 94.366 49.755H106.167C107.094 49.755 107.867 49.9611 108.486 50.3734C109.104 50.7856 109.568 51.3181 109.877 51.9708C110.186 52.5892 110.341 53.2763 110.341 54.0321C110.341 54.7535 110.186 55.4406 109.877 56.0933C109.568 56.7117 109.104 57.227 108.486 57.6393C107.867 58.0515 107.094 58.2576 106.167 58.2576H94.366C91.4803 58.2576 88.9552 57.708 86.7909 56.6086C84.6266 55.4749 82.823 53.9977 81.3802 52.1769C79.9373 50.3562 78.8379 48.2949 78.0822 45.9932C77.3607 43.6571 77 41.2695 77 38.8304C77 36.3912 77.3607 34.0208 78.0822 31.7191C78.8036 29.383 79.8857 27.3046 81.3286 25.4838C82.7715 23.663 84.5751 22.203 86.7394 21.1036C88.9037 19.9699 91.4459 19.4031 94.366 19.4031H106.167ZM99.6222 34.5017C100.172 34.5017 100.704 34.622 101.22 34.8625C101.769 35.0686 102.233 35.3778 102.611 35.79C102.989 36.1679 103.298 36.6145 103.539 37.1298C103.779 37.6451 103.899 38.212 103.899 38.8304C103.899 39.4144 103.779 39.964 103.539 40.4794C103.298 40.9947 102.989 41.4584 102.611 41.8707C102.233 42.2486 101.769 42.5578 101.22 42.7983C100.704 43.0387 100.172 43.159 99.6222 43.159C99.0382 43.159 98.4713 43.0387 97.9217 42.7983C97.4064 42.5578 96.9598 42.2486 96.5819 41.8707C96.204 41.4584 95.8948 40.9947 95.6543 40.4794C95.4482 39.964 95.3451 39.4144 95.3451 38.8304C95.3451 38.212 95.4482 37.6451 95.6543 37.1298C95.8948 36.6145 96.204 36.1679 96.5819 35.79C96.9598 35.3778 97.4064 35.0686 97.9217 34.8625C98.4713 34.622 99.0382 34.5017 99.6222 34.5017Z" fill="#330035"/>
<path d="M114.195 23.4741C114.195 22.0999 114.624 21.0693 115.483 20.3822C116.377 19.6951 117.356 19.3516 118.421 19.3516C119.486 19.3516 120.448 19.6951 121.306 20.3822C122.2 21.0693 122.646 22.0999 122.646 23.4741V49.7034H140.115C141.043 49.7034 141.816 49.9096 142.434 50.3218C143.087 50.7341 143.568 51.2666 143.877 51.9193C144.186 52.5377 144.341 53.2247 144.341 53.9805C144.341 54.702 144.186 55.389 143.877 56.0418C143.568 56.6602 143.087 57.1755 142.434 57.5877C141.816 58 141.043 58.2061 140.115 58.2061H118.266C116.926 58.2061 115.913 57.7595 115.226 56.8663C114.573 55.9387 114.229 54.6848 114.195 53.1045V23.4741Z" fill="#330035"/>
<path d="M166.98 19.4031C167.735 19.4031 168.474 19.6092 169.195 20.0215C169.951 20.4337 170.518 21.0177 170.896 21.7735L186.407 51.9708C186.991 53.0014 187.094 54.0664 186.716 55.1658C186.372 56.2307 185.685 57.0381 184.655 57.5877C183.59 58.103 182.508 58.1889 181.408 57.8454C180.343 57.5018 179.536 56.7804 178.986 55.6811L166.98 32.5951L155.024 55.6811C154.475 56.7804 153.65 57.5018 152.551 57.8454C151.451 58.1889 150.369 58.103 149.304 57.5877C148.239 57.0381 147.535 56.2307 147.192 55.1658C146.848 54.0664 146.951 53.0014 147.501 51.9708L163.166 21.7735C163.544 21.0177 164.077 20.4337 164.764 20.0215C165.485 19.6092 166.224 19.4031 166.98 19.4031ZM166.98 44.6019C167.564 44.6019 168.113 44.7221 168.629 44.9626C169.178 45.1687 169.642 45.4779 170.02 45.8901C170.432 46.268 170.741 46.7146 170.947 47.2299C171.188 47.7109 171.308 48.2262 171.308 48.7759C171.308 50.0126 170.879 51.0433 170.02 51.8678C169.195 52.6579 168.182 53.053 166.98 53.053C165.777 53.053 164.747 52.6579 163.888 51.8678C163.063 51.0433 162.651 50.0126 162.651 48.7759C162.651 48.2262 162.754 47.7109 162.96 47.2299C163.201 46.7146 163.51 46.268 163.888 45.8901C164.3 45.4779 164.764 45.1687 165.279 44.9626C165.829 44.7221 166.396 44.6019 166.98 44.6019Z" fill="#330035"/>
<path d="M194.56 27.8027C193.151 27.8027 192.104 27.3733 191.417 26.5144C190.73 25.6212 190.386 24.6421 190.386 23.5771C190.386 22.5121 190.73 21.5502 191.417 20.6914C192.104 19.7982 193.151 19.3516 194.56 19.3516H211.153C213.627 19.3516 215.739 19.884 217.491 20.949C219.243 21.9797 220.618 23.3195 221.614 24.9685C222.645 26.6175 223.28 28.4382 223.521 30.4308C223.795 32.4233 223.675 34.3643 223.16 36.2538C222.679 38.1433 221.803 39.861 220.532 41.4069C219.295 42.9185 217.663 44.0178 215.636 44.7049L220.841 51.3524C221.425 52.0395 221.751 52.761 221.82 53.5168C221.889 54.2382 221.768 54.9253 221.459 55.578C221.184 56.1964 220.755 56.7289 220.171 57.1755C219.621 57.6221 219.003 57.9141 218.316 58.0515C217.663 58.2233 216.976 58.2061 216.255 58C215.533 57.7595 214.88 57.2785 214.296 56.5571L205.536 45.4779H198.579V53.8775C198.579 54.805 198.373 55.578 197.961 56.1964C197.549 56.7804 197.034 57.227 196.415 57.5362C195.797 57.8454 195.127 58 194.405 58C193.684 58 193.014 57.8454 192.396 57.5362C191.777 57.227 191.262 56.7804 190.85 56.1964C190.438 55.578 190.231 54.805 190.231 53.8775V41.2008C190.231 39.9984 190.626 39.0193 191.417 38.2635C192.207 37.5077 193.255 37.1298 194.56 37.1298H211.153C212.046 37.1298 212.785 36.9065 213.369 36.4599C213.987 35.979 214.434 35.395 214.709 34.7079C215.018 34.0208 215.172 33.2822 215.172 32.492C215.172 31.6675 215.018 30.9117 214.709 30.2247C214.434 29.5376 213.987 28.9707 213.369 28.5241C212.785 28.0432 212.046 27.8027 211.153 27.8027H194.56Z" fill="#330035"/>
<path d="M235.46 53.8775C235.46 54.4615 235.34 55.0283 235.1 55.578C234.894 56.0933 234.602 56.5571 234.224 56.9693C233.846 57.3472 233.399 57.6564 232.884 57.8969C232.369 58.103 231.836 58.2061 231.286 58.2061C230.118 58.2061 229.122 57.7938 228.298 56.9693C227.473 56.1105 227.061 55.0799 227.061 53.8775V23.4741C227.061 22.3747 227.473 21.4128 228.298 20.5883C229.122 19.7638 230.118 19.3516 231.286 19.3516C231.836 19.3516 232.369 19.4718 232.884 19.7123C233.399 19.9184 233.846 20.2104 234.224 20.5883C234.602 20.9662 234.894 21.4128 235.1 21.9281C235.34 22.4091 235.46 22.9244 235.46 23.4741V53.8775Z" fill="#330035"/>
<path d="M272.08 19.4031C273.454 19.4031 274.485 19.8497 275.172 20.7429C275.894 21.6018 276.254 22.5637 276.254 23.6287C276.254 24.6593 275.894 25.6212 275.172 26.5144C274.485 27.3733 273.454 27.8027 272.08 27.8027H243.223C241.814 27.8027 240.766 27.3733 240.079 26.5144C239.392 25.6212 239.049 24.6593 239.049 23.6287C239.049 22.5637 239.392 21.6018 240.079 20.7429C240.766 19.8497 241.814 19.4031 243.223 19.4031H272.08ZM247.448 55.1142C247.448 55.767 247.225 56.3338 246.778 56.8148C246.366 57.2614 245.834 57.6049 245.181 57.8454C244.563 58.0515 243.893 58.1546 243.171 58.1546C242.45 58.1546 241.763 58.0515 241.11 57.8454C240.492 57.6049 239.976 57.2614 239.564 56.8148C239.152 56.3682 238.963 55.8013 238.997 55.1142V38.5212C238.928 36.9409 239.203 35.8244 239.822 35.1716C240.474 34.4846 241.608 34.141 243.223 34.141H269.194C270.431 34.141 271.359 34.5876 271.977 35.4808C272.596 36.3397 272.905 37.3016 272.905 38.3666C272.905 39.3972 272.596 40.3591 271.977 41.2523C271.359 42.1112 270.431 42.5406 269.194 42.5406H247.448V55.1142Z" fill="#330035"/>
<path d="M279.295 23.6802C279.295 22.306 279.725 21.2754 280.584 20.5883C281.477 19.9012 282.439 19.5577 283.469 19.5577C284.534 19.5233 285.496 19.8497 286.355 20.5368C287.248 21.2239 287.695 22.2717 287.695 23.6802C287.695 25.1918 287.987 26.6862 288.571 28.1634C289.155 29.6406 289.928 30.9461 290.89 32.0798C291.989 33.3509 293.26 34.3128 294.703 34.9655C296.18 35.5839 297.675 35.8931 299.186 35.8931C300.698 35.8931 302.175 35.5839 303.618 34.9655C305.061 34.3128 306.332 33.3509 307.431 32.0798C308.428 30.9461 309.218 29.6406 309.802 28.1634C310.42 26.6862 310.695 25.1918 310.626 23.6802C310.729 22.2717 311.21 21.2239 312.069 20.5368C312.962 19.8153 313.924 19.4718 314.955 19.5062C315.986 19.5062 316.913 19.8669 317.738 20.5883C318.597 21.2754 319.026 22.306 319.026 23.6802C319.026 26.2567 318.562 28.7474 317.635 31.1522C316.707 33.5226 315.419 35.687 313.77 37.6451C312.293 39.2598 310.678 40.5824 308.926 41.6131C307.208 42.6437 305.336 43.3479 303.309 43.7258V53.8775C303.309 55.3203 302.88 56.3853 302.021 57.0724C301.162 57.7595 300.2 58.103 299.135 58.103C298.104 58.103 297.16 57.7595 296.301 57.0724C295.442 56.351 295.012 55.286 295.012 53.8775V43.7258C293.054 43.3479 291.182 42.6437 289.396 41.6131C287.643 40.5824 286.029 39.2598 284.552 37.6451C282.903 35.687 281.614 33.5226 280.687 31.1522C279.759 28.7474 279.295 26.2567 279.295 23.6802Z" fill="#330035"/>
<path d="M85.9675 71.248H84.8202C84.7523 70.918 84.6336 70.6281 84.464 70.3783C84.2974 70.1284 84.0939 69.9187 83.8533 69.7491C83.6159 69.5764 83.3522 69.4469 83.0623 69.3605C82.7724 69.2742 82.4701 69.231 82.1556 69.231C81.5819 69.231 81.0623 69.3759 80.5966 69.6658C80.134 69.9557 79.7654 70.3829 79.4909 70.9473C79.2195 71.5116 79.0839 72.204 79.0839 73.0244C79.0839 73.8447 79.2195 74.5371 79.4909 75.1015C79.7654 75.6659 80.134 76.093 80.5966 76.3829C81.0623 76.6728 81.5819 76.8177 82.1556 76.8177C82.4701 76.8177 82.7724 76.7746 83.0623 76.6882C83.3522 76.6019 83.6159 76.4739 83.8533 76.3043C84.0939 76.1316 84.2974 75.9203 84.464 75.6705C84.6336 75.4176 84.7523 75.1277 84.8202 74.8008H85.9675C85.8811 75.285 85.7238 75.7183 85.4956 76.1007C85.2674 76.4831 84.9836 76.8085 84.6444 77.0768C84.3051 77.342 83.9243 77.544 83.5018 77.6828C83.0823 77.8216 82.6336 77.891 82.1556 77.891C81.3475 77.891 80.629 77.6936 79.9998 77.2989C79.3707 76.9041 78.8757 76.3428 78.5148 75.615C78.154 74.8871 77.9736 74.0236 77.9736 73.0244C77.9736 72.0251 78.154 71.1616 78.5148 70.4338C78.8757 69.7059 79.3707 69.1446 79.9998 68.7499C80.629 68.3551 81.3475 68.1577 82.1556 68.1577C82.6336 68.1577 83.0823 68.2271 83.5018 68.3659C83.9243 68.5047 84.3051 68.7083 84.6444 68.9766C84.9836 69.2418 85.2674 69.5656 85.4956 69.948C85.7238 70.3274 85.8811 70.7607 85.9675 71.248Z" fill="#330035"/>
<path d="M87.8214 77.7615V68.2873H88.9686V72.5063H94.0203V68.2873H95.1676V77.7615H94.0203V73.524H88.9686V77.7615H87.8214Z" fill="#330035"/>
<path d="M97.853 77.7615H96.6502L100.129 68.2873H101.313L104.792 77.7615H103.589L100.758 69.7861H100.684L97.853 77.7615ZM98.2971 74.0606H103.145V75.0784H98.2971V74.0606Z" fill="#330035"/>
<path d="M104.643 69.305V68.2873H111.749V69.305H108.769V77.7615H107.622V69.305H104.643Z" fill="#330035"/>
<path d="M118.904 77.7615L116.313 68.2873H117.479L119.459 76.0036H119.552L121.569 68.2873H122.864L124.881 76.0036H124.973L126.953 68.2873H128.119L125.528 77.7615H124.344L122.253 70.2117H122.179L120.088 77.7615H118.904Z" fill="#330035"/>
<path d="M130.696 68.2873V77.7615H129.549V68.2873H130.696Z" fill="#330035"/>
<path d="M132.478 69.305V68.2873H139.584V69.305H136.604V77.7615H135.457V69.305H132.478Z" fill="#330035"/>
<path d="M141.354 77.7615V68.2873H142.502V72.5063H147.553V68.2873H148.701V77.7615H147.553V73.524H142.502V77.7615H141.354Z" fill="#330035"/>
<path d="M153.847 68.2873H155.161L157.788 72.7098H157.899L160.527 68.2873H161.841L158.418 73.8571V77.7615H157.27V73.8571L153.847 68.2873Z" fill="#330035"/>
<path d="M170.873 73.0244C170.873 74.0236 170.693 74.8871 170.332 75.615C169.971 76.3428 169.476 76.9041 168.847 77.2989C168.218 77.6936 167.499 77.891 166.691 77.891C165.883 77.891 165.165 77.6936 164.536 77.2989C163.906 76.9041 163.411 76.3428 163.051 75.615C162.69 74.8871 162.509 74.0236 162.509 73.0244C162.509 72.0251 162.69 71.1616 163.051 70.4338C163.411 69.7059 163.906 69.1446 164.536 68.7499C165.165 68.3551 165.883 68.1577 166.691 68.1577C167.499 68.1577 168.218 68.3551 168.847 68.7499C169.476 69.1446 169.971 69.7059 170.332 70.4338C170.693 71.1616 170.873 72.0251 170.873 73.0244ZM169.763 73.0244C169.763 72.204 169.626 71.5116 169.351 70.9473C169.08 70.3829 168.711 69.9557 168.246 69.6658C167.783 69.3759 167.265 69.231 166.691 69.231C166.118 69.231 165.598 69.3759 165.132 69.6658C164.67 69.9557 164.301 70.3829 164.027 70.9473C163.755 71.5116 163.62 72.204 163.62 73.0244C163.62 73.8447 163.755 74.5371 164.027 75.1015C164.301 75.6659 164.67 76.093 165.132 76.3829C165.598 76.6728 166.118 76.8177 166.691 76.8177C167.265 76.8177 167.783 76.6728 168.246 76.3829C168.711 76.093 169.08 75.6659 169.351 75.1015C169.626 74.5371 169.763 73.8447 169.763 73.0244Z" fill="#330035"/>
<path d="M179.02 68.2873H180.167V74.5602C180.167 75.2079 180.014 75.7861 179.709 76.295C179.407 76.8008 178.98 77.2002 178.428 77.4932C177.876 77.7831 177.228 77.928 176.485 77.928C175.741 77.928 175.094 77.7831 174.542 77.4932C173.99 77.2002 173.561 76.8008 173.256 76.295C172.953 75.7861 172.802 75.2079 172.802 74.5602V68.2873H173.95V74.4677C173.95 74.9303 174.051 75.342 174.255 75.7029C174.458 76.0606 174.748 76.3428 175.125 76.5494C175.504 76.753 175.957 76.8548 176.485 76.8548C177.012 76.8548 177.465 76.753 177.845 76.5494C178.224 76.3428 178.514 76.0606 178.714 75.7029C178.918 75.342 179.02 74.9303 179.02 74.4677V68.2873Z" fill="#330035"/>
<path d="M182.458 77.7615V68.2873H185.659C186.4 68.2873 187.007 68.4137 187.482 68.6666C187.957 68.9164 188.309 69.2603 188.537 69.6982C188.765 70.1362 188.879 70.6342 188.879 71.1924C188.879 71.7507 188.765 72.2456 188.537 72.6774C188.309 73.1092 187.959 73.4484 187.487 73.6952C187.015 73.9388 186.412 74.0606 185.678 74.0606H183.087V73.0244H185.641C186.147 73.0244 186.554 72.9504 186.862 72.8023C187.174 72.6543 187.399 72.4446 187.538 72.1732C187.679 71.8987 187.75 71.5718 187.75 71.1924C187.75 70.8131 187.679 70.4816 187.538 70.1978C187.396 69.9141 187.169 69.6951 186.858 69.5409C186.546 69.3837 186.134 69.305 185.622 69.305H183.605V77.7615H182.458ZM186.918 73.5055L189.249 77.7615H187.917L185.622 73.5055H186.918Z" fill="#330035"/>
<path d="M202.078 71.248H200.931C200.863 70.918 200.745 70.6281 200.575 70.3783C200.408 70.1284 200.205 69.9187 199.964 69.7491C199.727 69.5764 199.463 69.4469 199.173 69.3605C198.883 69.2742 198.581 69.231 198.267 69.231C197.693 69.231 197.173 69.3759 196.708 69.6658C196.245 69.9557 195.876 70.3829 195.602 70.9473C195.331 71.5116 195.195 72.204 195.195 73.0244C195.195 73.8447 195.331 74.5371 195.602 75.1015C195.876 75.6659 196.245 76.093 196.708 76.3829C197.173 76.6728 197.693 76.8177 198.267 76.8177C198.581 76.8177 198.883 76.7746 199.173 76.6882C199.463 76.6019 199.727 76.4739 199.964 76.3043C200.205 76.1316 200.408 75.9203 200.575 75.6705C200.745 75.4176 200.863 75.1277 200.931 74.8008H202.078C201.992 75.285 201.835 75.7183 201.607 76.1007C201.378 76.4831 201.095 76.8085 200.755 77.0768C200.416 77.342 200.035 77.544 199.613 77.6828C199.193 77.8216 198.745 77.891 198.267 77.891C197.459 77.891 196.74 77.6936 196.111 77.2989C195.482 76.9041 194.987 76.3428 194.626 75.615C194.265 74.8871 194.085 74.0236 194.085 73.0244C194.085 72.0251 194.265 71.1616 194.626 70.4338C194.987 69.7059 195.482 69.1446 196.111 68.7499C196.74 68.3551 197.459 68.1577 198.267 68.1577C198.745 68.1577 199.193 68.2271 199.613 68.3659C200.035 68.5047 200.416 68.7083 200.755 68.9766C201.095 69.2418 201.378 69.5656 201.607 69.948C201.835 70.3274 201.992 70.7607 202.078 71.248Z" fill="#330035"/>
<path d="M210.15 68.2873H211.297V74.5602C211.297 75.2079 211.144 75.7861 210.839 76.295C210.537 76.8008 210.11 77.2002 209.558 77.4932C209.006 77.7831 208.358 77.928 207.615 77.928C206.871 77.928 206.224 77.7831 205.672 77.4932C205.12 77.2002 204.691 76.8008 204.386 76.295C204.083 75.7861 203.932 75.2079 203.932 74.5602V68.2873H205.08V74.4677C205.08 74.9303 205.181 75.342 205.385 75.7029C205.589 76.0606 205.878 76.3428 206.255 76.5494C206.634 76.753 207.087 76.8548 207.615 76.8548C208.142 76.8548 208.595 76.753 208.975 76.5494C209.354 76.3428 209.644 76.0606 209.844 75.7029C210.048 75.342 210.15 74.9303 210.15 74.4677V68.2873Z" fill="#330035"/>
<path d="M218.769 70.6558C218.714 70.187 218.489 69.8231 218.094 69.5641C217.699 69.305 217.215 69.1755 216.641 69.1755C216.222 69.1755 215.855 69.2433 215.54 69.379C215.229 69.5147 214.985 69.7013 214.809 69.9388C214.637 70.1763 214.55 70.4461 214.55 70.7483C214.55 71.0012 214.611 71.2187 214.731 71.4006C214.854 71.5795 215.011 71.7291 215.203 71.8493C215.394 71.9665 215.594 72.0637 215.804 72.1408C216.014 72.2148 216.207 72.275 216.382 72.3212L217.345 72.5803C217.591 72.645 217.866 72.7345 218.168 72.8486C218.473 72.9627 218.765 73.1184 219.042 73.3158C219.323 73.5101 219.554 73.7599 219.736 74.0652C219.918 74.3706 220.009 74.7453 220.009 75.1894C220.009 75.7013 219.875 76.1639 219.607 76.5772C219.341 76.9905 218.953 77.3189 218.441 77.5625C217.932 77.8062 217.314 77.928 216.586 77.928C215.907 77.928 215.32 77.8185 214.823 77.5996C214.33 77.3806 213.941 77.0753 213.658 76.6836C213.377 76.2919 213.218 75.837 213.181 75.3189H214.365C214.396 75.6767 214.516 75.9727 214.726 76.2071C214.939 76.4384 215.207 76.6111 215.531 76.7252C215.858 76.8363 216.21 76.8918 216.586 76.8918C217.024 76.8918 217.417 76.8208 217.766 76.679C218.114 76.534 218.39 76.3336 218.594 76.0776C218.797 75.8185 218.899 75.5163 218.899 75.1709C218.899 74.8563 218.811 74.6003 218.635 74.4029C218.459 74.2056 218.228 74.0452 217.941 73.9218C217.654 73.7985 217.345 73.6905 217.011 73.598L215.846 73.2649C215.105 73.0521 214.52 72.7484 214.088 72.3536C213.656 71.9588 213.44 71.4423 213.44 70.8039C213.44 70.2734 213.584 69.8108 213.87 69.416C214.16 69.0182 214.549 68.7098 215.036 68.4908C215.526 68.2688 216.074 68.1577 216.678 68.1577C217.289 68.1577 217.832 68.2672 218.307 68.4862C218.782 68.7021 219.158 68.9981 219.436 69.3744C219.716 69.7507 219.864 70.1778 219.88 70.6558H218.769Z" fill="#330035"/>
<path d="M221.377 69.305V68.2873H228.483V69.305H225.504V77.7615H224.357V69.305H221.377Z" fill="#330035"/>
<path d="M237.853 73.0244C237.853 74.0236 237.673 74.8871 237.312 75.615C236.951 76.3428 236.456 76.9041 235.827 77.2989C235.198 77.6936 234.479 77.891 233.671 77.891C232.863 77.891 232.145 77.6936 231.515 77.2989C230.886 76.9041 230.391 76.3428 230.03 75.615C229.67 74.8871 229.489 74.0236 229.489 73.0244C229.489 72.0251 229.67 71.1616 230.03 70.4338C230.391 69.7059 230.886 69.1446 231.515 68.7499C232.145 68.3551 232.863 68.1577 233.671 68.1577C234.479 68.1577 235.198 68.3551 235.827 68.7499C236.456 69.1446 236.951 69.7059 237.312 70.4338C237.673 71.1616 237.853 72.0251 237.853 73.0244ZM236.743 73.0244C236.743 72.204 236.606 71.5116 236.331 70.9473C236.06 70.3829 235.691 69.9557 235.225 69.6658C234.763 69.3759 234.245 69.231 233.671 69.231C233.097 69.231 232.578 69.3759 232.112 69.6658C231.65 69.9557 231.281 70.3829 231.007 70.9473C230.735 71.5116 230.599 72.204 230.599 73.0244C230.599 73.8447 230.735 74.5371 231.007 75.1015C231.281 75.6659 231.65 76.093 232.112 76.3829C232.578 76.6728 233.097 76.8177 233.671 76.8177C234.245 76.8177 234.763 76.6728 235.225 76.3829C235.691 76.093 236.06 75.6659 236.331 75.1015C236.606 74.5371 236.743 73.8447 236.743 73.0244Z" fill="#330035"/>
<path d="M239.782 68.2873H241.151L244.371 76.1516H244.482L247.702 68.2873H249.071V77.7615H247.998V70.5633H247.906L244.945 77.7615H243.909L240.948 70.5633H240.855V77.7615H239.782V68.2873Z" fill="#330035"/>
<path d="M262.659 71.248H261.512C261.444 70.918 261.325 70.6281 261.156 70.3783C260.989 70.1284 260.786 69.9187 260.545 69.7491C260.308 69.5764 260.044 69.4469 259.754 69.3605C259.464 69.2742 259.162 69.231 258.847 69.231C258.274 69.231 257.754 69.3759 257.288 69.6658C256.826 69.9557 256.457 70.3829 256.183 70.9473C255.911 71.5116 255.776 72.204 255.776 73.0244C255.776 73.8447 255.911 74.5371 256.183 75.1015C256.457 75.6659 256.826 76.093 257.288 76.3829C257.754 76.6728 258.274 76.8177 258.847 76.8177C259.162 76.8177 259.464 76.7746 259.754 76.6882C260.044 76.6019 260.308 76.4739 260.545 76.3043C260.786 76.1316 260.989 75.9203 261.156 75.6705C261.325 75.4176 261.444 75.1277 261.512 74.8008H262.659C262.573 75.285 262.416 75.7183 262.187 76.1007C261.959 76.4831 261.675 76.8085 261.336 77.0768C260.997 77.342 260.616 77.544 260.194 77.6828C259.774 77.8216 259.325 77.891 258.847 77.891C258.039 77.891 257.321 77.6936 256.692 77.2989C256.062 76.9041 255.567 76.3428 255.207 75.615C254.846 74.8871 254.665 74.0236 254.665 73.0244C254.665 72.0251 254.846 71.1616 255.207 70.4338C255.567 69.7059 256.062 69.1446 256.692 68.7499C257.321 68.3551 258.039 68.1577 258.847 68.1577C259.325 68.1577 259.774 68.2271 260.194 68.3659C260.616 68.5047 260.997 68.7083 261.336 68.9766C261.675 69.2418 261.959 69.5656 262.187 69.948C262.416 70.3274 262.573 70.7607 262.659 71.248Z" fill="#330035"/>
<path d="M272.507 73.0244C272.507 74.0236 272.327 74.8871 271.966 75.615C271.605 76.3428 271.11 76.9041 270.481 77.2989C269.852 77.6936 269.133 77.891 268.325 77.891C267.517 77.891 266.798 77.6936 266.169 77.2989C265.54 76.9041 265.045 76.3428 264.684 75.615C264.323 74.8871 264.143 74.0236 264.143 73.0244C264.143 72.0251 264.323 71.1616 264.684 70.4338C265.045 69.7059 265.54 69.1446 266.169 68.7499C266.798 68.3551 267.517 68.1577 268.325 68.1577C269.133 68.1577 269.852 68.3551 270.481 68.7499C271.11 69.1446 271.605 69.7059 271.966 70.4338C272.327 71.1616 272.507 72.0251 272.507 73.0244ZM271.397 73.0244C271.397 72.204 271.26 71.5116 270.985 70.9473C270.714 70.3829 270.345 69.9557 269.879 69.6658C269.417 69.3759 268.899 69.231 268.325 69.231C267.751 69.231 267.232 69.3759 266.766 69.6658C266.303 69.9557 265.935 70.3829 265.66 70.9473C265.389 71.5116 265.253 72.204 265.253 73.0244C265.253 73.8447 265.389 74.5371 265.66 75.1015C265.935 75.6659 266.303 76.093 266.766 76.3829C267.232 76.6728 267.751 76.8177 268.325 76.8177C268.899 76.8177 269.417 76.6728 269.879 76.3829C270.345 76.093 270.714 75.6659 270.985 75.1015C271.26 74.5371 271.397 73.8447 271.397 73.0244Z" fill="#330035"/>
<path d="M281.949 68.2873V77.7615H280.839L275.676 70.3227H275.583V77.7615H274.436V68.2873H275.546L280.728 75.7445H280.82V68.2873H281.949Z" fill="#330035"/>
<path d="M283.726 69.305V68.2873H290.832V69.305H287.853V77.7615H286.706V69.305H283.726Z" fill="#330035"/>
<path d="M292.603 77.7615V68.2873H298.321V69.305H293.75V72.5063H298.024V73.524H293.75V76.7437H298.395V77.7615H292.603Z" fill="#330035"/>
<path d="M307.901 68.2873V77.7615H306.791L301.628 70.3227H301.536V77.7615H300.388V68.2873H301.499L306.68 75.7445H306.772V68.2873H307.901Z" fill="#330035"/>
<path d="M309.679 69.305V68.2873H316.784V69.305H313.805V77.7615H312.658V69.305H309.679Z" fill="#330035"/>
<path d="M105.196 39C105.196 41.7614 102.958 44 100.196 44C97.435 44 95.1964 41.7614 95.1964 39C95.1964 36.2386 97.435 34 100.196 34C102.958 34 105.196 36.2386 105.196 39Z" fill="#CA60F8"/>
<path d="M172.196 49C172.196 51.7614 169.958 54 167.196 54C164.435 54 162.196 51.7614 162.196 49C162.196 46.2386 164.435 44 167.196 44C169.958 44 172.196 46.2386 172.196 49Z" fill="#CA60F8"/>
<path d="M304.196 27C304.196 29.7614 301.958 32 299.196 32C296.435 32 294.196 29.7614 294.196 27C294.196 24.2386 296.435 22 299.196 22C301.958 22 304.196 24.2386 304.196 27Z" fill="#CA60F8"/>
</g>
<path d="M2.63773 46.6511H4.125V30.186H2.63773C1.18131 30.186 0 31.7987 0 33.7887V43.0466C0 45.0375 1.18131 46.6511 2.63773 46.6511Z" fill="url(#paint0_linear_80_12)"/>
<path d="M63.3631 30.186H61.875V46.6511H63.3631C64.8187 46.6511 66 45.0375 66 43.0475V33.7887C66 31.7987 64.8187 30.186 63.3631 30.186Z" fill="#D85AF7"/>
<path d="M38.5 16.2034C38.5 15.6893 38.4018 15.1803 38.2112 14.7055C38.0205 14.2306 37.741 13.7991 37.3887 13.4357C37.0364 13.0722 36.6182 12.784 36.1579 12.5874C35.6977 12.3907 35.2043 12.2896 34.7062 12.2897H33.9639V6.30538C34.6737 6.06845 35.2781 5.57788 35.6685 4.92199C36.0588 4.26609 36.2094 3.48796 36.0932 2.72767C35.9769 1.96738 35.6015 1.27487 35.0344 0.774818C34.4674 0.274761 33.7459 0 33 0C32.254 0 31.5326 0.274761 30.9655 0.774818C30.3985 1.27487 30.023 1.96738 29.9068 2.72767C29.7906 3.48796 29.9412 4.26609 30.3315 4.92199C30.7219 5.57788 31.3263 6.06845 32.036 6.30538V12.2897H31.2938C30.7956 12.2896 30.3023 12.3907 29.842 12.5874C29.3818 12.784 28.9635 13.0722 28.6112 13.4357C28.2589 13.7991 27.9795 14.2306 27.7888 14.7055C27.5981 15.1803 27.5 15.6893 27.5 16.2034V16.4651H38.5V16.2034Z" fill="#C545E9"/>
<path d="M30.25 39.8605C30.2419 40.1981 30.12 40.5188 29.9103 40.7543C29.7007 40.9898 29.4197 41.1215 29.1273 41.1215C28.8348 41.1215 28.5539 40.9898 28.3442 40.7543C28.1345 40.5188 28.0127 40.1981 28.0045 39.8605C27.9921 39.0851 27.7168 38.3463 27.2376 37.803C26.7584 37.2597 26.1138 36.9553 25.4423 36.9553C24.7708 36.9553 24.1262 37.2597 23.647 37.803C23.1678 38.3463 22.8925 39.0851 22.8801 39.8605C22.8801 40.2058 22.7613 40.5371 22.5498 40.7813C22.3384 41.0255 22.0516 41.1627 21.7525 41.1627C21.4535 41.1627 21.1667 41.0255 20.9553 40.7813C20.7438 40.5371 20.625 40.2058 20.625 39.8605C20.625 38.3863 21.132 36.9726 22.0346 35.9302C22.9371 34.8878 24.1612 34.3022 25.4375 34.3022C26.7139 34.3022 27.9379 34.8878 28.8405 35.9302C29.743 36.9726 30.25 38.3863 30.25 39.8605Z" fill="url(#paint1_linear_80_12)"/>
<path d="M45.3745 39.8773C45.3664 40.2121 45.2443 40.5301 45.0342 40.7637C44.8241 40.9972 44.5426 41.1279 44.2496 41.1279C43.9565 41.1279 43.675 40.9972 43.4649 40.7637C43.2548 40.5301 43.1327 40.2121 43.1246 39.8773C43.1246 39.1004 42.8546 38.3554 42.374 37.8061C41.8935 37.2568 41.2417 36.9482 40.562 36.9482C39.8824 36.9482 39.2306 37.2568 38.75 37.8061C38.2695 38.3554 37.9995 39.1004 37.9995 39.8773C37.9995 40.2182 37.881 40.5451 37.6701 40.7862C37.4592 41.0273 37.1732 41.1627 36.875 41.1627C36.5767 41.1627 36.2907 41.0273 36.0798 40.7862C35.8689 40.5451 35.7504 40.2182 35.7504 39.8773C35.7418 39.1487 35.8599 38.4255 36.0979 37.7495C36.3359 37.0736 36.689 36.4584 37.1367 35.9397C37.5844 35.421 38.1178 35.0092 38.7059 34.7281C39.2939 34.447 39.925 34.3022 40.5625 34.3022C41.1999 34.3022 41.831 34.447 42.4191 34.7281C43.0072 35.0092 43.5406 35.421 43.9883 35.9397C44.436 36.4584 44.789 37.0736 45.027 37.7495C45.265 38.4255 45.3831 39.1487 45.3745 39.8773Z" fill="url(#paint2_linear_80_12)"/>
<path d="M43.1748 19.2093H22.8205C18.9563 19.2096 15.2503 20.7698 12.5179 23.5467C9.78544 26.3237 8.25026 30.0899 8.25001 34.0171V44.1912C8.25176 48.1182 9.78752 51.8839 12.5198 54.6607C15.2521 57.4375 18.9574 58.9982 22.8215 59H43.1757C45.0896 59.0005 46.9847 58.6178 48.753 57.8738C50.5213 57.1298 52.128 56.0391 53.4814 54.6639C54.8348 53.2887 55.9084 51.656 56.6408 49.8591C57.3732 48.0622 57.7501 46.1362 57.75 44.1912V34.0171C57.7508 32.0719 57.3742 30.1457 56.642 28.3484C55.9097 26.5512 54.836 24.9183 53.4824 23.5431C52.1288 22.1678 50.5217 21.0772 48.753 20.3336C46.9844 19.59 45.0888 19.208 43.1748 19.2093ZM49.4037 46.5516L46.3462 48.2578C45.5249 48.7158 44.5733 48.8718 43.6519 48.6997L33.7444 46.8251C33.2512 46.7305 32.745 46.7305 32.2519 46.8251L22.3443 48.6997C21.4227 48.8719 20.4708 48.7158 19.6491 48.2578L16.5926 46.5516C15.9115 46.173 15.3519 45.6033 14.9807 44.9104C14.6094 44.2175 14.4421 43.4307 14.4987 42.6438L15.1725 33.5017C15.2483 32.4798 15.6957 31.5231 16.4276 30.8182C17.1595 30.1133 18.1234 29.7106 19.1315 29.6885L33 29.436L46.8562 29.6885C47.865 29.7111 48.8295 30.1137 49.5625 30.8184C50.2955 31.523 50.7447 32.4793 50.8228 33.5017L51.4967 42.6438C51.5509 43.4302 51.3827 44.216 51.0118 44.9084C50.641 45.6008 50.083 46.171 49.4037 46.5516Z" fill="url(#paint3_linear_80_12)"/>
</g>
<defs>
<linearGradient id="paint0_linear_80_12" x1="-271.536" y1="109.481" x2="-173.916" y2="-278.755" gradientUnits="userSpaceOnUse">
<stop stop-color="#4618FE"/>
<stop offset="1" stop-color="#F33656"/>
</linearGradient>
<linearGradient id="paint1_linear_80_12" x1="-177.129" y1="344.601" x2="320.875" y2="0.79488" gradientUnits="userSpaceOnUse">
<stop stop-color="#8E07BD"/>
<stop offset="1" stop-color="#D85AF7"/>
</linearGradient>
<linearGradient id="paint2_linear_80_12" x1="-225.25" y1="410.662" x2="270.401" y2="64.919" gradientUnits="userSpaceOnUse">
<stop stop-color="#8E07BD"/>
<stop offset="1" stop-color="#D85AF7"/>
</linearGradient>
<linearGradient id="paint3_linear_80_12" x1="15.7143" y1="59.0652" x2="55.0115" y2="25.9869" gradientUnits="userSpaceOnUse">
<stop stop-color="#8901B9"/>
<stop offset="1" stop-color="#DB5EFA"/>
</linearGradient>
<clipPath id="clip0_80_12">
<rect width="319" height="59" fill="white"/>
</clipPath>
<clipPath id="clip1_80_12">
<rect width="242" height="47" fill="white" transform="translate(77 19)"/>
</clipPath>
</defs>
</svg>
