<svg aria-hidden="true" style="position: absolute; width: 0; height: 0; overflow: hidden;"
    version="1.1"
    xmlns="http://www.w3.org/2000/svg" xmlns:xlink="http://www.w3.org/1999/xlink">
    fill="currentColor" <defs>
        <symbol id="icon_login" fill="currentColor" viewBox="0 0 32 32">
            <path
                d="M16.642 20.669c-0.391 0.39-0.391 1.023-0 1.414 0.195 0.195 0.451 0.293 0.707 0.293s0.512-0.098 0.707-0.293l5.907-6.063-5.907-6.063c-0.39-0.39-1.023-0.39-1.414 0s-0.391 1.024 0 1.414l3.617 3.617h-19.264c-0.552 0-1 0.448-1 1s0.448 1 1 1h19.326zM30.005 0h-18c-1.105 0-2.001 0.895-2.001 2v9h2.014v-7.78c0-0.668 0.542-1.21 1.21-1.21h15.522c0.669 0 1.21 0.542 1.21 1.21l0.032 25.572c0 0.668-0.541 1.21-1.21 1.21h-15.553c-0.668 0-1.21-0.542-1.21-1.21v-7.824l-2.014 0.003v9.030c0 1.105 0.896 2 2.001 2h18c1.105 0 2-0.895 2-2v-28c-0.001-1.105-0.896-2-2-2z"></path>
        </symbol>
        <symbol id="icon_menu" fill="currentColor" viewBox="0 0 32 32">
            <path d="M8 24h16v-4h-16v4zM8 18.016h16v-4h-16v4zM8 12h16v-4h-16v4z" />
        </symbol>
        <symbol id="icon_settings" fill="currentColor" viewBox="0 0 32 32">
            <path
                d="M6.972 2.998l0.104 0.022 0.1 0.034 0.096 0.044 0.090 0.054 3.218 2.146 0.122-0.060 0.172-0.084 0.174-0.080 0.174-0.078 0.178-0.076 0.178-0.072 0.178-0.070 0.182-0.066 0.182-0.064 0.142-0.048 0.758-3.79 0.026-0.104 0.036-0.098 0.048-0.094 0.056-0.090 0.066-0.080 0.074-0.078 0.082-0.066 0.088-0.058 0.094-0.048 0.098-0.038 0.102-0.028 0.104-0.018 0.106-0.004 4.106 0.004 0.104 0.020 0.102 0.026 0.098 0.040 0.094 0.046 0.088 0.060 0.082 0.064 0.074 0.076 0.066 0.082 0.056 0.090 0.048 0.094 0.036 0.1 0.026 0.102 0.758 3.79 0.142 0.048 0.182 0.064 0.182 0.066 0.178 0.070 0.178 0.072 0.178 0.076 0.174 0.078 0.174 0.080 0.172 0.084 0.122 0.060 3.218-2.146 0.090-0.054 0.096-0.044 0.1-0.034 0.104-0.022 0.104-0.012h0.106l0.106 0.010 0.102 0.022 0.102 0.032 0.096 0.042 0.092 0.052 0.084 0.062 0.080 0.072 2.828 2.828 0.070 0.080 0.062 0.084 0.054 0.092 0.042 0.096 0.032 0.1 0.022 0.104 0.010 0.104v0.106l-0.012 0.106-0.024 0.102-0.034 0.1-0.044 0.096-0.054 0.092-2.144 3.218 0.060 0.12 0.084 0.172 0.080 0.174 0.078 0.176 0.074 0.176 0.074 0.18 0.136 0.36 0.064 0.182 0.046 0.14 3.894 0.784 0.1 0.040 0.094 0.044 0.090 0.058 0.082 0.066 0.074 0.074 0.068 0.080 0.058 0.090 0.048 0.094 0.038 0.1 0.028 0.1 0.016 0.104 0.006 0.106v4l-0.006 0.104-0.016 0.104-0.028 0.102-0.038 0.1-0.048 0.094-0.058 0.088-0.068 0.082-0.074 0.074-0.082 0.066-0.090 0.056-0.094 0.046-0.1 0.040-0.102 0.024-3.792 0.758-0.046 0.14-0.064 0.184-0.136 0.36-0.074 0.18-0.074 0.174-0.078 0.176-0.080 0.174-0.084 0.172-0.060 0.12 2.144 3.22 0.054 0.090 0.044 0.096 0.034 0.1 0.024 0.102 0.012 0.106v0.106l-0.010 0.104-0.022 0.104-0.032 0.1-0.042 0.1-0.054 0.088-0.062 0.086-0.070 0.080-2.828 2.828-0.080 0.070-0.084 0.062-0.092 0.052-0.096 0.042-0.102 0.034-0.102 0.020-0.106 0.010h-0.106l-0.104-0.012-0.104-0.020-0.1-0.036-0.096-0.044-0.090-0.054-3.218-2.146-0.122 0.062-0.172 0.082-0.348 0.16-0.178 0.074-0.178 0.072-0.178 0.070-0.182 0.066-0.182 0.064-0.142 0.048-0.758 3.792-0.026 0.102-0.036 0.1-0.048 0.094-0.056 0.088-0.066 0.082-0.074 0.076-0.082 0.066-0.088 0.060-0.094 0.048-0.098 0.040-0.102 0.024-0.104 0.020-0.106 0.004h-4l-0.106-0.006-0.104-0.018-0.102-0.026-0.098-0.038-0.094-0.050-0.088-0.058-0.082-0.066-0.074-0.076-0.066-0.080-0.056-0.090-0.048-0.096-0.036-0.098-0.026-0.1-0.758-3.794-0.142-0.048-0.182-0.064-0.182-0.066-0.178-0.070-0.178-0.072-0.178-0.076-0.174-0.078-0.174-0.080-0.172-0.080-0.122-0.064-3.218 2.146-0.090 0.054-0.096 0.044-0.1 0.034-0.104 0.022-0.104 0.012h-0.106l-0.106-0.010-0.102-0.020-0.102-0.034-0.096-0.040-0.092-0.054-0.084-0.060-0.080-0.072-2.828-2.83-0.070-0.078-0.062-0.086-0.054-0.090-0.042-0.098-0.032-0.1-0.022-0.104-0.010-0.104v-0.106l0.012-0.106 0.024-0.1 0.034-0.1 0.044-0.098 0.054-0.092 2.144-3.218-0.060-0.12-0.084-0.172-0.080-0.174-0.078-0.176-0.074-0.176-0.074-0.178-0.136-0.36-0.064-0.184-0.046-0.14-3.792-0.758-0.102-0.026-0.1-0.038-0.094-0.046-0.090-0.056-0.082-0.066-0.074-0.074-0.068-0.082-0.058-0.088-0.048-0.094-0.038-0.1-0.028-0.102-0.016-0.104-0.006-0.104v-4l0.006-0.106 0.016-0.104 0.028-0.1 0.038-0.1 0.048-0.094 0.058-0.090 0.068-0.080 0.074-0.074 0.082-0.066 0.090-0.058 0.094-0.046 0.1-0.038 0.102-0.026 3.792-0.758 0.046-0.14 0.064-0.18 0.068-0.184 0.068-0.18 0.074-0.178 0.074-0.176 0.078-0.176 0.080-0.174 0.084-0.172 0.060-0.12-2.144-3.218-0.054-0.092-0.044-0.096-0.034-0.1-0.024-0.1-0.012-0.108v-0.106l0.010-0.104 0.022-0.104 0.032-0.1 0.042-0.096 0.054-0.092 0.062-0.086 0.070-0.078 2.828-2.828 0.080-0.072 0.084-0.062 0.092-0.052 0.096-0.042 0.102-0.032 0.102-0.020 0.106-0.012h0.106l0.104 0.012zM21.66 24.564l0.098 0.024 0.094 0.034 0.090 0.042 0.086 0.050 3.036 2.026 1.67-1.67-2.024-3.036-0.052-0.086-0.042-0.092-0.034-0.094-0.022-0.096-0.014-0.1-0.004-0.1 0.006-0.1 0.016-0.098 0.026-0.098 0.036-0.094 0.044-0.088 0.082-0.146 0.076-0.14 0.074-0.14 0.072-0.14 0.070-0.146 0.066-0.144 0.066-0.146 0.062-0.148 0.060-0.148 0.058-0.15 0.056-0.15 0.054-0.152 0.050-0.154 0.048-0.152 0.046-0.156 0.046-0.164 0.032-0.094 0.042-0.092 0.050-0.086 0.058-0.082 0.066-0.074 0.074-0.068 0.078-0.062 0.086-0.052 0.090-0.040 0.094-0.036 0.098-0.026 3.576-0.714v-2.36l-3.576-0.716-0.098-0.024-0.094-0.034-0.090-0.044-0.086-0.052-0.080-0.060-0.072-0.068-0.066-0.076-0.058-0.080-0.050-0.088-0.042-0.090-0.032-0.096-0.046-0.164-0.046-0.154-0.048-0.154-0.050-0.154-0.054-0.152-0.056-0.15-0.058-0.15-0.060-0.148-0.062-0.146-0.132-0.292-0.142-0.284-0.074-0.14-0.076-0.14-0.082-0.146-0.044-0.090-0.036-0.094-0.026-0.096-0.016-0.1-0.006-0.1 0.004-0.1 0.014-0.098 0.022-0.098 0.034-0.094 0.042-0.092 0.052-0.086 2.024-3.036-1.67-1.668-3.036 2.024-0.086 0.050-0.090 0.044-0.094 0.032-0.098 0.024-0.1 0.014-0.1 0.004-0.1-0.006-0.098-0.018-0.096-0.026-0.094-0.034-0.090-0.046-0.146-0.080-0.138-0.078-0.142-0.074-0.142-0.070-0.144-0.070-0.144-0.068-0.146-0.064-0.148-0.062-0.296-0.12-0.304-0.108-0.152-0.050-0.154-0.050-0.156-0.046-0.162-0.046-0.096-0.030-0.092-0.042-0.086-0.050-0.082-0.058-0.074-0.066-0.068-0.074-0.060-0.080-0.052-0.084-0.044-0.092-0.034-0.094-0.024-0.096-0.716-3.576h-2.36l-0.716 3.576-0.024 0.096-0.034 0.094-0.044 0.092-0.052 0.084-0.060 0.080-0.068 0.074-0.074 0.066-0.082 0.058-0.086 0.050-0.092 0.042-0.096 0.030-0.162 0.046-0.156 0.046-0.154 0.050-0.152 0.050-0.304 0.108-0.296 0.12-0.148 0.062-0.146 0.064-0.144 0.068-0.144 0.070-0.142 0.070-0.142 0.074-0.138 0.076-0.146 0.082-0.090 0.046-0.094 0.034-0.096 0.026-0.098 0.018-0.1 0.006-0.1-0.004-0.1-0.014-0.098-0.024-0.094-0.032-0.090-0.044-0.086-0.050-3.036-2.024-1.67 1.668 2.024 3.036 0.052 0.086 0.042 0.092 0.034 0.094 0.022 0.1 0.014 0.096 0.004 0.1-0.006 0.1-0.016 0.1-0.026 0.096-0.036 0.094-0.044 0.090-0.082 0.144-0.076 0.14-0.074 0.142-0.072 0.142-0.070 0.142-0.132 0.292-0.062 0.146-0.060 0.148-0.058 0.15-0.056 0.15-0.054 0.152-0.050 0.154-0.048 0.154-0.046 0.154-0.046 0.164-0.032 0.096-0.042 0.090-0.050 0.088-0.058 0.080-0.066 0.076-0.074 0.068-0.078 0.060-0.086 0.052-0.090 0.044-0.094 0.034-0.098 0.024-3.576 0.716v2.36l3.576 0.714 0.098 0.026 0.094 0.034 0.090 0.042 0.086 0.052 0.080 0.062 0.072 0.068 0.066 0.074 0.058 0.082 0.050 0.086 0.042 0.092 0.032 0.094 0.046 0.164 0.046 0.156 0.048 0.152 0.050 0.154 0.054 0.152 0.056 0.15 0.058 0.15 0.060 0.148 0.062 0.148 0.066 0.146 0.066 0.144 0.070 0.144 0.072 0.142 0.074 0.14 0.076 0.14 0.082 0.146 0.044 0.088 0.036 0.094 0.026 0.096 0.016 0.1 0.006 0.1-0.004 0.1-0.014 0.1-0.022 0.096-0.034 0.094-0.042 0.092-0.052 0.086-2.024 3.036 1.67 1.67 3.036-2.026 0.086-0.050 0.090-0.040 0.094-0.036 0.098-0.024 0.1-0.014 0.1-0.004 0.1 0.008 0.098 0.016 0.096 0.026 0.094 0.036 0.090 0.044 0.146 0.082 0.138 0.076 0.142 0.074 0.142 0.072 0.288 0.136 0.146 0.064 0.148 0.064 0.296 0.12 0.152 0.054 0.304 0.104 0.154 0.048 0.156 0.046 0.162 0.046 0.096 0.032 0.092 0.040 0.086 0.050 0.082 0.060 0.074 0.064 0.068 0.074 0.060 0.080 0.052 0.086 0.044 0.090 0.034 0.094 0.024 0.096 0.716 3.58h2.36l0.716-3.58 0.024-0.096 0.034-0.094 0.044-0.090 0.052-0.086 0.060-0.080 0.068-0.074 0.074-0.066 0.082-0.058 0.086-0.050 0.092-0.040 0.096-0.032 0.162-0.046 0.156-0.046 0.154-0.048 0.304-0.104 0.152-0.056 0.148-0.058 0.148-0.060 0.148-0.064 0.146-0.064 0.288-0.136 0.142-0.072 0.142-0.074 0.138-0.076 0.146-0.080 0.090-0.046 0.094-0.036 0.096-0.026 0.098-0.016 0.1-0.008 0.1 0.004 0.1 0.014zM16.154 10.006l0.154 0.006 0.152 0.010 0.152 0.014 0.15 0.016 0.15 0.022 0.148 0.024 0.148 0.028 0.146 0.032 0.144 0.036 0.144 0.040 0.14 0.040 0.142 0.046 0.138 0.050 0.138 0.052 0.134 0.056 0.134 0.058 0.132 0.062 0.132 0.064 0.128 0.068 0.126 0.070 0.124 0.074 0.124 0.078 0.12 0.078 0.118 0.082 0.118 0.086 0.114 0.088 0.112 0.090 0.11 0.092 0.108 0.096 0.208 0.2 0.1 0.102 0.098 0.104 0.096 0.108 0.092 0.11 0.090 0.112 0.088 0.116 0.086 0.116 0.082 0.12 0.080 0.12 0.076 0.122 0.074 0.124 0.070 0.126 0.068 0.13 0.066 0.13 0.060 0.132 0.060 0.134 0.054 0.134 0.054 0.138 0.048 0.14 0.046 0.14 0.042 0.142 0.038 0.142 0.036 0.146 0.032 0.144 0.028 0.148 0.024 0.148 0.022 0.15 0.016 0.15 0.014 0.152 0.010 0.152 0.006 0.154 0.002 0.154-0.002 0.154-0.006 0.154-0.010 0.154-0.014 0.15-0.016 0.152-0.022 0.15-0.024 0.148-0.028 0.146-0.032 0.146-0.036 0.146-0.038 0.142-0.042 0.142-0.046 0.14-0.048 0.14-0.108 0.272-0.060 0.134-0.060 0.132-0.066 0.13-0.068 0.128-0.070 0.128-0.074 0.124-0.076 0.122-0.080 0.122-0.082 0.12-0.086 0.114-0.088 0.114-0.090 0.114-0.092 0.11-0.096 0.106-0.098 0.106-0.1 0.102-0.104 0.102-0.104 0.1-0.108 0.092-0.11 0.094-0.112 0.090-0.114 0.088-0.118 0.084-0.118 0.082-0.12 0.080-0.124 0.080-0.124 0.070-0.126 0.072-0.128 0.068-0.132 0.064-0.132 0.062-0.134 0.060-0.134 0.054-0.138 0.052-0.138 0.050-0.142 0.044-0.14 0.042-0.144 0.040-0.144 0.036-0.146 0.030-0.148 0.030-0.148 0.024-0.3 0.040-0.152 0.012-0.152 0.010-0.154 0.004-0.154 0.002h-0.154l-0.154-0.006-0.152-0.010-0.152-0.014-0.152-0.018-0.148-0.020-0.15-0.024-0.292-0.060-0.144-0.036-0.144-0.040-0.142-0.040-0.14-0.046-0.138-0.050-0.138-0.052-0.136-0.056-0.134-0.058-0.132-0.060-0.13-0.066-0.128-0.068-0.128-0.072-0.124-0.072-0.122-0.078-0.122-0.080-0.118-0.080-0.116-0.086-0.114-0.088-0.112-0.090-0.11-0.094-0.108-0.094-0.106-0.098-0.102-0.1-0.1-0.104-0.098-0.106-0.096-0.106-0.094-0.112-0.090-0.112-0.088-0.114-0.084-0.116-0.082-0.118-0.080-0.122-0.076-0.122-0.074-0.124-0.072-0.128-0.068-0.128-0.064-0.13-0.062-0.132-0.058-0.134-0.056-0.136-0.052-0.136-0.048-0.14-0.046-0.14-0.042-0.14-0.040-0.144-0.034-0.146-0.032-0.146-0.028-0.146-0.026-0.148-0.020-0.15-0.018-0.152-0.014-0.15-0.008-0.154-0.006-0.152-0.002-0.156 0.002-0.154 0.006-0.152 0.008-0.154 0.014-0.152 0.018-0.15 0.020-0.15 0.026-0.148 0.028-0.148 0.032-0.144 0.034-0.146 0.040-0.14 0.042-0.144 0.046-0.14 0.048-0.14 0.052-0.136 0.056-0.136 0.058-0.134 0.062-0.132 0.064-0.13 0.068-0.13 0.072-0.126 0.074-0.124 0.076-0.124 0.080-0.12 0.082-0.118 0.084-0.116 0.088-0.116 0.090-0.112 0.094-0.11 0.096-0.108 0.098-0.104 0.1-0.104 0.102-0.1 0.106-0.098 0.108-0.096 0.11-0.092 0.112-0.090 0.114-0.088 0.116-0.086 0.118-0.082 0.244-0.156 0.124-0.074 0.128-0.070 0.128-0.068 0.13-0.064 0.132-0.062 0.134-0.058 0.136-0.056 0.138-0.052 0.138-0.050 0.14-0.046 0.142-0.040 0.144-0.040 0.144-0.036 0.146-0.032 0.146-0.028 0.15-0.024 0.148-0.022 0.152-0.016 0.152-0.014 0.152-0.010 0.154-0.006 0.154-0.002 0.154 0.002zM15.896 12.006l-0.102 0.004-0.102 0.006-0.102 0.010-0.1 0.012-0.1 0.014-0.098 0.016-0.196 0.040-0.096 0.022-0.096 0.026-0.094 0.028-0.092 0.030-0.184 0.068-0.090 0.036-0.090 0.040-0.088 0.042-0.086 0.042-0.086 0.046-0.084 0.046-0.164 0.1-0.082 0.054-0.078 0.054-0.078 0.058-0.076 0.058-0.076 0.060-0.074 0.062-0.072 0.064-0.070 0.066-0.068 0.066-0.068 0.070-0.066 0.070-0.062 0.072-0.062 0.074-0.060 0.074-0.060 0.080-0.056 0.074-0.056 0.080-0.052 0.080-0.052 0.082-0.096 0.168-0.088 0.172-0.042 0.088-0.076 0.18-0.034 0.090-0.032 0.092-0.030 0.094-0.028 0.094-0.026 0.096-0.024 0.096-0.020 0.096-0.020 0.098-0.016 0.1-0.014 0.098-0.012 0.1-0.016 0.204-0.002 0.104-0.002 0.102 0.004 0.208 0.008 0.102 0.008 0.1 0.012 0.102 0.014 0.1 0.016 0.098 0.020 0.1 0.020 0.094 0.024 0.096 0.026 0.096 0.028 0.094 0.030 0.092 0.032 0.094 0.034 0.090 0.076 0.18 0.042 0.088 0.088 0.172 0.096 0.168 0.052 0.080 0.052 0.082 0.056 0.080 0.056 0.076 0.060 0.078 0.060 0.074 0.062 0.074 0.062 0.072 0.066 0.070 0.136 0.136 0.070 0.066 0.072 0.062 0.074 0.064 0.076 0.060 0.076 0.058 0.156 0.112 0.164 0.104 0.082 0.050 0.084 0.046 0.086 0.046 0.086 0.042 0.088 0.042 0.090 0.040 0.090 0.036 0.092 0.034 0.092 0.032 0.092 0.030 0.094 0.030 0.192 0.048 0.098 0.022 0.098 0.020 0.098 0.014 0.1 0.014 0.1 0.012 0.102 0.010 0.102 0.006 0.102 0.004h0.208l0.102-0.004 0.102-0.006 0.102-0.010 0.1-0.012 0.1-0.014 0.098-0.016 0.098-0.018 0.098-0.020 0.096-0.026 0.094-0.024 0.188-0.060 0.092-0.032 0.092-0.034 0.090-0.038 0.088-0.038 0.088-0.042 0.088-0.040 0.084-0.048 0.084-0.046 0.084-0.050 0.082-0.052 0.080-0.052 0.080-0.056 0.078-0.056 0.076-0.058 0.074-0.060 0.074-0.064 0.072-0.060 0.14-0.136 0.066-0.068 0.066-0.070 0.064-0.072 0.062-0.074 0.060-0.076 0.058-0.076 0.058-0.078 0.054-0.078 0.054-0.080 0.050-0.082 0.050-0.084 0.048-0.084 0.088-0.172 0.040-0.088 0.040-0.090 0.072-0.18 0.032-0.094 0.030-0.092 0.028-0.094 0.026-0.096 0.024-0.096 0.020-0.096 0.018-0.098 0.018-0.1 0.014-0.098 0.010-0.1 0.010-0.104 0.006-0.102 0.004-0.102 0.002-0.104-0.002-0.102-0.004-0.104-0.006-0.102-0.010-0.102-0.010-0.1-0.014-0.098-0.018-0.1-0.018-0.098-0.020-0.096-0.024-0.096-0.026-0.096-0.028-0.094-0.030-0.094-0.032-0.092-0.036-0.090-0.036-0.092-0.080-0.176-0.088-0.172-0.048-0.084-0.050-0.084-0.050-0.082-0.108-0.16-0.058-0.076-0.058-0.078-0.060-0.074-0.062-0.074-0.064-0.072-0.066-0.070-0.066-0.068-0.070-0.068-0.070-0.066-0.072-0.064-0.148-0.12-0.076-0.060-0.078-0.058-0.16-0.108-0.082-0.050-0.084-0.050-0.168-0.092-0.088-0.044-0.176-0.080-0.090-0.036-0.184-0.068-0.094-0.030-0.094-0.028-0.094-0.026-0.096-0.022-0.098-0.022-0.098-0.018-0.098-0.016-0.1-0.014-0.1-0.012-0.102-0.010-0.102-0.006-0.102-0.004-0.104-0.002-0.104 0.002z">
            </path>
        </symbol>
        <symbol id="icon_plus" fill="currentColor" viewBox="0 0 32 32">
            <path transform="rotate(45 16 16)"
                d="M24.956 8.929l-1.885-1.885-7.071 7.071-7.071-7.071-1.885 1.885 7.071 7.071-7.071 7.071 1.885 1.885 7.071-7.071 7.071 7.071 1.885-1.885-7.071-7.071z">
            </path>
        </symbol>
        <symbol id="icon_arrow_left" fill="currentColor" viewBox="0 0 20 20">
            <path transform="rotate(180 10 10)"
                d="M9.937 10.001l-4.83-1.208A2.502 2.502 0 013.26 6.858L2.221 1.662A1.002 1.002 0 013.691.593l14.49 8.098a1.5 1.5 0 010 2.62l-14.49 8.097a1.001 1.001 0 01-1.47-1.069l1.04-5.195a2.5 2.5 0 011.845-1.935l4.831-1.208zM3.202 1.466l1.04 5.195a1.5 1.5 0 001.106 1.161L10.18 9.03a1.001 1.001 0 010 1.941L5.348 12.18a1.5 1.5 0 00-1.107 1.161l-1.039 5.195 14.491-8.098a.5.5 0 000-.873L3.203 1.466z">
            </path>
        </symbol>
        <symbol id="icon_edit" fill="currentColor" viewBox="0 0 32 32">
            <path
                d="M4.378 18.212l16.5-16.5c0.544-0.542 1.294-0.877 2.122-0.877s1.578 0.335 2.122 0.877l5.17 5.172c0.544 0.542 0.881 1.292 0.881 2.121s-0.337 1.579-0.881 2.121l-16.5 16.5c-0.189 0.191-0.434 0.327-0.716 0.384l-9.874 1.975c-0.066 0.014-0.134 0.021-0.204 0.021-0.551 0-0.998-0.447-0.998-0.998 0-0.070 0.007-0.138 0.020-0.198l1.978-9.891c0.056-0.273 0.191-0.517 0.38-0.707zM13 25.59l11.586-11.586-6.586-6.584-11.586 11.584 6.586 6.586zM10.972 26.39l-5.358-5.356-1.34 6.696 6.698-1.34zM28.878 9.712v0c0.181-0.181 0.293-0.431 0.293-0.707s-0.112-0.526-0.293-0.707l-0.104-0.104c-1.458-1.458-3.646-3.644-5.066-5.068l-0-0c-0.181-0.181-0.431-0.294-0.708-0.294s-0.527 0.112-0.708 0.294l-2.878 2.878 6.586 6.586 2.878-2.878z">
            </path>
        </symbol>
        <symbol id="icon_copy" fill="currentColor" viewBox="0 0 16 16">
            <path d="M14 12V2H4V0h12v12h-2zM0 4h12v12H0V4zm2 2v8h8V6H2z" fill-rule="evenodd" />
        </symbol>
        <symbol id="icon_save" fill="currentColor" viewBox="0 0 24 24">
            <path fill-rule="evenodd" clip-rule="evenodd"
                d="M18.1716 1C18.702 1 19.2107 1.21071 19.5858 1.58579L22.4142 4.41421C22.7893 4.78929 23 5.29799 23 5.82843V20C23 21.6569 21.6569 23 20 23H4C2.34315 23 1 21.6569 1 20V4C1 2.34315 2.34315 1 4 1H18.1716ZM4 3C3.44772 3 3 3.44772 3 4V20C3 20.5523 3.44772 21 4 21L5 21L5 15C5 13.3431 6.34315 12 8 12L16 12C17.6569 12 19 13.3431 19 15V21H20C20.5523 21 21 20.5523 21 20V6.82843C21 6.29799 20.7893 5.78929 20.4142 5.41421L18.5858 3.58579C18.2107 3.21071 17.702 3 17.1716 3H17V5C17 6.65685 15.6569 8 14 8H10C8.34315 8 7 6.65685 7 5V3H4ZM17 21V15C17 14.4477 16.5523 14 16 14L8 14C7.44772 14 7 14.4477 7 15L7 21L17 21ZM9 3H15V5C15 5.55228 14.5523 6 14 6H10C9.44772 6 9 5.55228 9 5V3Z" />
        </symbol>
        <symbol id="icon_close" fill="currentColor" viewBox="0 0 32 32">
            <path
                d="M24.956 8.929l-1.885-1.885-7.071 7.071-7.071-7.071-1.885 1.885 7.071 7.071-7.071 7.071 1.885 1.885 7.071-7.071 7.071 7.071 1.885-1.885-7.071-7.071z">
            </path>
        </symbol>
        <symbol id="icon_delete" fill="currentColor" viewBox="0 0 32 32">
            <path
                d="M18.198 0.014l0.098 0.012 0.192 0.040 0.094 0.026 0.092 0.030 0.092 0.038 0.088 0.036 0.088 0.044 0.084 0.048 0.084 0.052 0.080 0.060 0.078 0.060 0.074 0.064 0.072 0.068 0.068 0.072 0.066 0.076 0.060 0.080 0.056 0.080 0.052 0.080 0.048 0.084 0.044 0.086 0.040 0.090 0.036 0.090 0.030 0.094 0.026 0.096 0.022 0.094 0.016 0.096 0.012 0.098 0.008 0.098 0.002 0.088v2.010l7.094 0.004 0.092 0.014 0.090 0.020 0.088 0.028 0.084 0.038 0.080 0.044 0.078 0.054 0.070 0.058 0.064 0.066 0.060 0.070 0.050 0.080 0.044 0.080 0.040 0.084 0.028 0.088 0.020 0.090 0.014 0.090 0.004 0.094-0.004 0.092-0.014 0.090-0.020 0.090-0.028 0.088-0.040 0.084-0.044 0.082-0.052 0.076-0.058 0.070-0.066 0.066-0.070 0.060-0.078 0.052-0.080 0.044-0.084 0.038-0.088 0.030-0.090 0.020-22.458-0.020-0.088-0.028-0.084-0.040-0.080-0.044-0.078-0.052-0.068-0.060-0.066-0.066-0.060-0.070-0.052-0.076-0.044-0.082-0.040-0.084-0.028-0.088-0.020-0.090-0.014-0.090-0.004-0.092 0.004-0.094 0.014-0.090 0.020-0.090 0.028-0.088 0.040-0.084 0.044-0.082 0.052-0.076 0.060-0.070 0.066-0.066 0.068-0.058 0.078-0.054 0.080-0.042 0.084-0.040 0.088-0.028 0.090-0.022 0.092-0.012 7.092-0.004v-2.012l0.002-0.086 0.008-0.096 0.012-0.1 0.016-0.096 0.022-0.096 0.026-0.096 0.030-0.094 0.036-0.090 0.040-0.090 0.044-0.086 0.048-0.086 0.052-0.080 0.056-0.080 0.060-0.080 0.066-0.076 0.068-0.072 0.072-0.068 0.074-0.062 0.078-0.060 0.080-0.060 0.084-0.052 0.084-0.048 0.088-0.042 0.088-0.040 0.092-0.036 0.092-0.030 0.094-0.026 0.192-0.040 0.098-0.012 0.098-0.006h4.2l0.098 0.006zM18 4.006v-2h-4v2h4z">
            </path>
            <path
                d="M7.184 8.020l0.090 0.024 0.088 0.030 0.084 0.034 0.080 0.046 0.076 0.054 0.070 0.058 0.066 0.064 0.060 0.072 0.052 0.076 0.046 0.080 0.036 0.086 0.028 0.088 0.024 0.090 0.012 0.092 0.002 0.092v20.988l0.004 0.010 16-0.010v-21.080l0.014-0.092 0.024-0.090 0.028-0.088 0.036-0.084 0.046-0.082 0.052-0.076 0.060-0.070 0.066-0.066 0.068-0.060 0.078-0.052 0.080-0.046 0.084-0.034 0.088-0.030 0.090-0.024 0.092-0.012 0.092-0.004 0.092 0.004 0.092 0.012 0.090 0.024 0.088 0.030 0.084 0.034 0.080 0.046 0.078 0.054 0.068 0.058 0.066 0.064 0.060 0.072 0.052 0.076 0.046 0.080 0.036 0.086 0.028 0.088 0.024 0.090 0.012 0.092 0.002 0.092v21.1l-0.008 0.104-0.014 0.1-0.016 0.096-0.020 0.096-0.028 0.098-0.032 0.092-0.036 0.092-0.040 0.090-0.046 0.086-0.048 0.084-0.106 0.16-0.060 0.074-0.062 0.072-0.068 0.070-0.068 0.066-0.074 0.062-0.074 0.060-0.080 0.056-0.080 0.052-0.086 0.048-0.084 0.044-0.088 0.040-0.092 0.036-0.092 0.030-0.098 0.028-0.096 0.024-0.1 0.016-0.1 0.012-0.1 0.010-16.502-0.038-0.096-0.024-0.098-0.028-0.092-0.030-0.092-0.036-0.088-0.040-0.088-0.046-0.082-0.046-0.080-0.052-0.080-0.058-0.074-0.058-0.072-0.062-0.070-0.066-0.068-0.070-0.062-0.072-0.060-0.076-0.108-0.16-0.046-0.082-0.046-0.088-0.038-0.088-0.036-0.090-0.034-0.094-0.026-0.098-0.022-0.096-0.016-0.098-0.014-0.1-0.006-0.1-0.006-0.094v-21.008l0.004-0.092 0.012-0.092 0.024-0.090 0.028-0.088 0.036-0.084 0.046-0.082 0.050-0.078 0.060-0.070 0.066-0.066 0.068-0.060 0.078-0.052 0.080-0.046 0.084-0.034 0.088-0.030 0.090-0.024 0.092-0.012 0.092-0.004 0.092 0.004 0.092 0.012z">
            </path>
            <path
                d="M13.078 10.008l0.078 0.010 0.078 0.014 0.076 0.022 0.072 0.028 0.072 0.032 0.068 0.040 0.066 0.042 0.062 0.048 0.058 0.054 0.052 0.058 0.050 0.062 0.042 0.064 0.040 0.070 0.032 0.070 0.028 0.074 0.020 0.076 0.016 0.076 0.008 0.078 0.004 0.080v16l-0.004 0.080-0.008 0.076-0.016 0.076-0.020 0.076-0.028 0.074-0.032 0.072-0.040 0.068-0.042 0.064-0.050 0.062-0.052 0.060-0.058 0.052-0.062 0.048-0.066 0.044-0.068 0.040-0.072 0.032-0.072 0.026-0.076 0.022-0.078 0.014-0.078 0.010-0.078 0.004-0.078-0.004-0.078-0.010-0.078-0.014-0.076-0.020-0.072-0.028-0.072-0.034-0.068-0.038-0.066-0.044-0.062-0.048-0.058-0.054-0.052-0.058-0.050-0.060-0.042-0.066-0.040-0.068-0.032-0.072-0.028-0.074-0.020-0.076-0.016-0.076-0.008-0.078-0.004-0.078v-16l0.004-0.080 0.008-0.078 0.016-0.076 0.020-0.076 0.028-0.074 0.032-0.070 0.040-0.070 0.042-0.064 0.050-0.060 0.052-0.060 0.058-0.054 0.062-0.048 0.066-0.044 0.068-0.038 0.072-0.032 0.072-0.028 0.076-0.022 0.078-0.014 0.078-0.010h0.156zM19.156 10.020l-0.078-0.012h-0.156l-0.078 0.010-0.078 0.014-0.076 0.022-0.072 0.028-0.072 0.032-0.068 0.040-0.066 0.042-0.062 0.048-0.058 0.054-0.052 0.058-0.050 0.062-0.042 0.064-0.040 0.070-0.032 0.070-0.028 0.074-0.020 0.076-0.016 0.076-0.008 0.078-0.004 0.080v16l0.004 0.080 0.008 0.076 0.016 0.076 0.020 0.076 0.028 0.074 0.032 0.072 0.040 0.068 0.042 0.064 0.050 0.062 0.052 0.060 0.058 0.052 0.062 0.048 0.066 0.044 0.068 0.040 0.072 0.032 0.072 0.026 0.076 0.022 0.078 0.014 0.078 0.010 0.078 0.004 0.078-0.004 0.078-0.010 0.078-0.014 0.076-0.020 0.072-0.028 0.072-0.034 0.068-0.038 0.066-0.044 0.062-0.048 0.058-0.054 0.052-0.058 0.050-0.060 0.042-0.066 0.040-0.068 0.032-0.072 0.028-0.074 0.020-0.076 0.016-0.076 0.008-0.078 0.004-0.078v-16l-0.004-0.080-0.008-0.078-0.016-0.076-0.020-0.076-0.028-0.074-0.032-0.070-0.040-0.070-0.042-0.064-0.050-0.060-0.052-0.060-0.058-0.054-0.062-0.048-0.066-0.044-0.068-0.038-0.072-0.032-0.072-0.028-0.076-0.022-0.078-0.014z">
            </path>
        </symbol>
        <symbol id="icon_exit" fill="currentColor" viewBox="0 0 32 32">
            <path
                d="M3.651 16.989h17.326c0.553 0 1-0.448 1-1s-0.447-1-1-1h-17.264l3.617-3.617c0.391-0.39 0.391-1.024 0-1.414s-1.024-0.39-1.414 0l-5.907 6.062 5.907 6.063c0.196 0.195 0.451 0.293 0.707 0.293s0.511-0.098 0.707-0.293c0.391-0.39 0.391-1.023 0-1.414zM29.989 0h-17c-1.105 0-2 0.895-2 2v9h2.013v-7.78c0-0.668 0.542-1.21 1.21-1.21h14.523c0.669 0 1.21 0.542 1.21 1.21l0.032 25.572c0 0.668-0.541 1.21-1.21 1.21h-14.553c-0.668 0-1.21-0.542-1.21-1.21v-7.824l-2.013 0.003v9.030c0 1.105 0.895 2 2 2h16.999c1.105 0 2.001-0.895 2.001-2v-28c-0-1.105-0.896-2-2-2z"></path>
        </symbol>
        <symbol id="icon_feather" fill="currentColor" viewBox="0 0 208.623 208.623">
            <path
                d="M157.781,61.555l-4.061,0.738l3.272-2.515c0.447-0.344,11.23-8.421,35.003-8.421c1.151,0,2.327,0.034,3.505,0.073  c10.441-26.368,13.122-47.118,13.122-47.118s-41.926,5.413-82.32,30.845c0.908,26.147-7.923,38.029-8.362,38.601l-2.516,3.273  l0.739-4.062c2.772-15.238,2.412-25.625,1.471-32.01c-7.424,5.275-14.688,11.271-21.512,18.095c-0.294,0.294-0.581,0.593-0.872,0.89  c1.895,28.648-7.721,41.586-8.18,42.183l-2.516,3.273l0.738-4.061c2.779-15.28,2.41-25.681,1.463-32.06  c-28.021,33.288-39.392,73.094-43.428,91.705L0,204.311l25.864-8.62l26.084-26.084c19.028-4.128,60.222-15.923,93.946-45.347  c-2.64-0.377-5.936-0.653-9.945-0.653c-6.561,0-13.892,0.729-21.788,2.165l-4.061,0.739l3.271-2.516  c0.447-0.344,11.23-8.423,35.003-8.423c2.12,0,4.3,0.088,6.507,0.22c16.938-17.249,28.725-37.179,36.841-55.381  c-2.926-0.552-6.927-1.021-12.152-1.021C173.009,59.391,165.678,60.119,157.781,61.555z M56.562,161.755l-11.214,0.593  l78.217-75.564L56.562,161.755z" />
        </symbol>
        <symbol id="icon_bill" fill="currentColor" viewBox="0 0 20 20">
            <path xmlns="http://www.w3.org/2000/svg" fill-rule="evenodd" clip-rule="evenodd"
                d="M12 2.75C6.89137 2.75 2.75 6.89137 2.75 12C2.75 17.1086 6.89137 21.25 12 21.25C17.1086 21.25 21.25 17.1086 21.25 12C21.25 6.89137 17.1086 2.75 12 2.75ZM1.25 12C1.25 6.06294 6.06294 1.25 12 1.25C17.9371 1.25 22.75 6.06294 22.75 12C22.75 17.9371 17.9371 22.75 12 22.75C6.06294 22.75 1.25 17.9371 1.25 12ZM12 5.25C12.4142 5.25 12.75 5.58579 12.75 6V6.31673C14.3804 6.60867 15.75 7.83361 15.75 9.5C15.75 9.91421 15.4142 10.25 15 10.25C14.5858 10.25 14.25 9.91421 14.25 9.5C14.25 8.82154 13.6859 8.10339 12.75 7.84748V11.3167C14.3804 11.6087 15.75 12.8336 15.75 14.5C15.75 16.1664 14.3804 17.3913 12.75 17.6833V18C12.75 18.4142 12.4142 18.75 12 18.75C11.5858 18.75 11.25 18.4142 11.25 18V17.6833C9.61957 17.3913 8.25 16.1664 8.25 14.5C8.25 14.0858 8.58579 13.75 9 13.75C9.41421 13.75 9.75 14.0858 9.75 14.5C9.75 15.1785 10.3141 15.8966 11.25 16.1525V12.6833C9.61957 12.3913 8.25 11.1664 8.25 9.5C8.25 7.83361 9.61957 6.60867 11.25 6.31673V6C11.25 5.58579 11.5858 5.25 12 5.25ZM11.25 7.84748C10.3141 8.10339 9.75 8.82154 9.75 9.5C9.75 10.1785 10.3141 10.8966 11.25 11.1525V7.84748ZM12.75 12.8475V16.1525C13.6859 15.8966 14.25 15.1785 14.25 14.5C14.25 13.8215 13.6859 13.1034 12.75 12.8475Z"
                fill="currentColor" />
        </symbol>
    </defs>
</svg>